# xmcd
#
# Track frame offsets: 
#        150
#        17838
#        36925
#        56563
#        75138
#        95038
#        116188
#        138238
#        152125
#        169413
#        188363
#        209700
#
# Disc length: 3064 seconds
#
# Revision: 6
# Processed by: cddbd v1.5.2PL0 Copyright (c) Steve Scherf et al.
# Submitted via: ExactAudioCopy v0.95a5
#
DISCID=a00bf60c
DTITLE=彭羚 - 未完的小說
DYEAR=1994
DGENRE=Pop
TTITLE0=讓我跟你走
TTITLE1=未完的小說
TTITLE2=不許\眼兒再下雨
TTITLE3=情難自制
TTITLE4=奔向你
TTITLE5=愛過痛過亦願等
TTITLE6=彷彿是初戀
TTITLE7=一世愛著你
TTITLE8=有緣遇上
TTITLE9=Let's Stay Awhile
TTITLE10=三人世界
TTITLE11=讓我跟妳走(巫啟賢合唱)
EXTD=
EXTT0=
EXTT1=
EXTT2=
EXTT3=
EXTT4=
EXTT5=
EXTT6=
EXTT7=
EXTT8=
EXTT9=
EXTT10=
EXTT11=
PLAYORDER=
